<?xml version="1.0" standalone="no"?>
<!DOCTYPE svg PUBLIC "-//W3C//DTD SVG 20010904//EN"
 "http://www.w3.org/TR/2001/REC-SVG-20010904/DTD/svg10.dtd">
<svg version="1.0" xmlns="http://www.w3.org/2000/svg"
 width="500.000000pt" height="500.000000pt" viewBox="0 0 500.000000 500.000000"
 preserveAspectRatio="xMidYMid meet">
<metadata>
Created by potrace 1.14, written by Peter Selinger 2001-2017
</metadata>
<g transform="translate(0.000000,500.000000) scale(0.100000,-0.100000)"
fill="#000000" stroke="none">
<path d="M4920 4989 c-8 -4 -71 -29 -140 -55 -69 -26 -174 -66 -235 -89 -60
-23 -195 -74 -300 -114 -104 -40 -199 -76 -210 -81 -11 -5 -66 -27 -123 -48
l-103 -39 120 -92 c67 -52 121 -97 121 -101 0 -4 -41 -63 -91 -131 -50 -68
-97 -133 -105 -144 -8 -11 -49 -67 -92 -125 -42 -58 -97 -134 -122 -169 -25
-35 -55 -76 -67 -91 -13 -15 -23 -33 -23 -38 0 -6 26 -31 58 -55 31 -25 70
-56 86 -70 l29 -26 -32 -37 c-89 -101 -289 -302 -406 -409 -125 -115 -142
-129 -276 -237 -347 -277 -711 -492 -1139 -671 -90 -38 -440 -163 -463 -166
-4 0 -31 -7 -61 -16 -62 -18 -45 -14 -256 -65 -91 -22 -183 -42 -205 -45 -22
-3 -48 -8 -57 -11 -25 -7 -149 -28 -233 -39 -11 -2 -40 -6 -65 -9 -25 -4 -63
-9 -85 -12 -22 -3 -51 -7 -65 -9 -25 -4 -171 -17 -222 -20 -51 -3 -40 -13 19
-17 87 -6 580 -1 646 6 31 3 83 8 115 11 179 17 380 49 612 100 153 33 436
122 635 200 134 52 457 208 580 280 44 26 89 52 100 59 63 36 372 252 395 276
3 3 41 34 85 70 149 120 288 257 459 450 12 14 43 53 70 88 50 66 50 66 92 27
34 -32 87 -69 92 -66 6 3 180 246 234 325 7 10 38 52 69 95 30 42 88 123 128
181 41 58 75 107 77 109 1 2 24 -14 50 -35 48 -39 71 -58 152 -129 23 -21 44
-36 46 -34 2 2 7 33 10 69 7 61 10 89 21 178 2 20 7 64 10 97 3 33 8 71 10 85
2 14 6 57 10 95 7 77 13 142 20 195 6 42 15 129 20 185 2 22 6 63 9 90 4 28 9
73 12 100 3 28 7 67 10 87 5 39 -2 50 -26 37z"/>
<path d="M4009 3040 l-66 -5 0 -1518 0 -1517 380 2 380 3 0 1513 c0 832 -3
1515 -6 1518 -7 7 -602 11 -688 4z"/>
<path d="M2781 2279 c-16 -6 -17 -73 -16 -1140 l0 -1134 399 0 399 0 1 1128
c1 621 -2 1133 -5 1138 -6 11 -750 18 -778 8z"/>
<path d="M1654 1520 l-29 -5 -1 -758 -1 -757 398 0 399 0 0 113 c2 711 0 1401
-4 1404 -6 7 -726 9 -762 3z"/>
<path d="M483 495 l0 -495 399 0 398 0 0 38 c1 44 1 873 0 920 l0 32 -398 0
-399 0 0 -495z"/>
</g>
</svg>
